<svg xmlns="http://www.w3.org/2000/svg" viewBox="0 0 512 512">
  <defs>
    <linearGradient id="grad1" x1="0%" y1="0%" x2="100%" y2="100%">
      <stop offset="0%" style="stop-color:#10b981;stop-opacity:1" />
      <stop offset="100%" style="stop-color:#047857;stop-opacity:1" />
    </linearGradient>
  </defs>
  
  <!-- Background Shape -->
  <rect x="0" y="0" width="512" height="512" rx="120" fill="url(#grad1)" />
  
  <!-- Icon Content (Stylized House/Tree/Pin) -->
  <g transform="translate(106, 106) scale(0.6)" fill="none" stroke="white" stroke-width="40" stroke-linecap="round" stroke-linejoin="round">
    <!-- Tree / Pin Shape -->
    <path d="M250 480c-50-70-160-200-160-310 0-88 72-160 160-160s160 72 160 160c0 110-110 240-160 310z" fill="white" fill-opacity="0.2" stroke="none"/>
    <path d="M250 480c-50-70-160-200-160-310 0-88 72-160 160-160s160 72 160 160c0 110-110 240-160 310z" />
    
    <!-- Inner House/Leaf detail -->
    <path d="M180 220l70-70 70 70" stroke-width="50"/>
    <rect x="210" y="220" width="80" height="100" fill="white" stroke="none" rx="10" />
  </g>
</svg>